<svg width="35" height="35" fill="none" xmlns="http://www.w3.org/2000/svg"><path d="M18.71 29.078v.283l.28-.035c5.88-.733 10.428-5.747 10.428-11.824 0-6.582-5.335-11.917-11.917-11.917-6.581 0-11.916 5.335-11.916 11.917 0 6.077 4.548 11.091 10.427 11.824l.281.035v-9.193h-3.167a1.208 1.208 0 0 1 0-2.416h3.167v-3.167a4.125 4.125 0 0 1 4.125-4.125h.73a1.208 1.208 0 1 1 0 2.417h-.73c-.944 0-1.708.765-1.708 1.708v3.167h3.166a1.208 1.208 0 1 1 0 2.417H18.71v8.91zm13.125-11.576c0 7.916-6.418 14.333-14.334 14.333-7.916 0-14.333-6.417-14.333-14.333S9.585 3.168 17.501 3.168s14.334 6.418 14.334 14.334z" fill="#333" stroke="#F7F7F7" stroke-width=".5"/></svg>