<svg width="35" height="35" fill="none" xmlns="http://www.w3.org/2000/svg"><path d="M23.333 4.625a7.042 7.042 0 0 1 7.042 7.042v11.666a7.042 7.042 0 0 1-7.042 7.042H11.667a7.042 7.042 0 0 1-7.042-7.042V11.667a7.042 7.042 0 0 1 7.042-7.042h11.666zm0 2.417H11.667a4.625 4.625 0 0 0-4.625 4.625v11.666a4.625 4.625 0 0 0 4.625 4.625h11.666a4.625 4.625 0 0 0 4.625-4.625V11.667a4.625 4.625 0 0 0-4.625-4.625zM17.5 11.917a5.583 5.583 0 1 1 0 11.166 5.583 5.583 0 0 1 0-11.166zm0 2.416a3.167 3.167 0 1 0 0 6.334 3.167 3.167 0 0 0 0-6.334zm6.563-4.604a1.208 1.208 0 1 1 0 2.417 1.208 1.208 0 0 1 0-2.417z" fill="#333" stroke="#F7F7F7" stroke-width=".5"/></svg>