<svg width="178" height="61" fill="none" xmlns="http://www.w3.org/2000/svg"><path d="M24.958.042v59.916H1.042V.042h23.916z" fill="#CB9B81" stroke="#fff" stroke-width=".085"/><path d="M25 31.669C21.016 46.323 17.13 53.487 12.951 60H1V0h24v31.669z" fill="#DCA98C"/><path d="M25 0C19.248 34.518 6.668 54.328 1 60V0h24z" fill="#E1AF93"/><path d="M15 0C12.839 14.982 4.477 35.532 1 42V0h14z" fill="#DCA98C"/><path d="M6 0C4.182 9.178 4.09 10.466 1 19V0h5z" fill="#CB9B81"/><path d="M1 60c5.668-5.672 18.248-25.482 24-60M1 20C4.09 11.017 4.182 9.661 6 0M13 60c4.161-6.437 8.032-13.517 12-28M1 42c3.477-6.468 11.839-27.017 14-42" stroke="#fff" stroke-width=".085"/><path d="M37.13 21.247v6.943h-2.153V13.645h4.747c1.48 0 2.688.33 3.625.988.952.66 1.428 1.531 1.428 2.615 0 1.07-.38 1.919-1.142 2.549-.747.615-1.765 1.04-3.054 1.274l5.888 7.12-2.549.307-5.097-7.25H37.13zm0-.66h1.407c2.637 0 3.955-1.04 3.955-3.12 0-.35-.088-.746-.264-1.186-.336-.922-1.054-1.53-2.153-1.823-.996 0-1.977.124-2.944.373v5.757zm19.616 4.154 4.856-11.096h2.24l.814 14.545h-2.241l-.594-12.502h-.088L56.196 28.19h-.307L50.46 16.193h-.087L49.78 28.19h-.966l.813-14.545h2.043l5.076 11.096zm18.471 3.713c-2.27 0-4.182-.615-5.734-1.846-1.553-1.23-2.33-2.995-2.33-5.295 0-1.348.257-2.549.77-3.604.512-1.054 1.186-1.882 2.02-2.482 1.686-1.23 3.575-1.846 5.67-1.846 1.216 0 2.483.22 3.801.66l-.22 1.493a52.743 52.743 0 0 0-1.604-.659 9.732 9.732 0 0 0-3.318-.593c-1.538.351-2.724 1.113-3.559 2.285-.82 1.172-1.23 2.637-1.23 4.395 0 2.153.563 3.815 1.691 4.987 1.128 1.157 2.615 1.736 4.46 1.736 1.847 0 3.224-.395 4.132-1.186v1.208c-1.26.498-2.776.747-4.549.747zm12.675-.264V13.645h4.153c1.728 0 3.288.366 4.68 1.098.747.381 1.399.857 1.956 1.428.556.572 1.003 1.304 1.34 2.198.337.879.505 1.86.505 2.944 0 1.553-.388 2.864-1.164 3.933-1.421 1.963-3.721 2.944-6.9 2.944h-4.57zm4.13-.747c1.861 0 3.355-.549 4.483-1.648 1.128-1.098 1.692-2.71 1.692-4.834 0-1.64-.447-3.04-1.34-4.196a6.306 6.306 0 0 0-3.472-2.33c-1.274 0-2.388.154-3.34.462v12.349c.469.131 1.128.197 1.978.197zm11.427.747V13.645h8.811l-.22 1.472-4.087-.681c-.718 0-1.509.124-2.373.373v5.34h4.878v.834h-4.878V27.4l6.812-.68-.22 1.471h-8.723zm17.831 0V13.645h2.153v13.359c.894.264 1.612.395 2.154.395l3.977-.68-.264 1.471h-8.02zm21.518-14.545v8.92c0 1.363-.147 2.388-.44 3.077-.132.307-.344.659-.637 1.054a3.47 3.47 0 0 1-.989.923c-.966.557-2.175.835-3.625.835-3.633 0-5.449-1.868-5.449-5.603v-9.206h2.241v9.382c0 .425.007.769.022 1.033.014.263.088.637.22 1.12.146.484.336.872.571 1.165.249.293.63.556 1.142.79.528.235 1.15.352 1.868.352 2.739 0 4.109-1.464 4.109-4.394v-9.448h.967zm9.453 6.723 5.735 7.822h-2.747l-4.131-6.416-4.658 6.416h-1.34l5.493-7.053-5.229-7.492h2.746l3.648 6.042 4.57-6.042h1.34l-5.427 6.723zm8.382 7.822V13.645h8.811l-.22 1.472-4.086-.681c-.718 0-1.509.124-2.374.373v5.34h4.878v.834h-4.878V27.4l6.812-.68-.22 1.471h-8.723z" fill="#333"/><path d="M35.215 43.356c.154-.328.405-.641.753-.939.36-.307.718-.46 1.077-.46.226 0 .395.03.508.091v1.262c-.226-.277-.544-.416-.954-.416-.43 0-.769.19-1.015.57-.246.369-.37.845-.37 1.43v1.246c0 .574.068.969.2 1.184.134.215.262.333.385.354h-2.168c.123-.02.25-.134.384-.339.144-.215.215-.615.215-1.2v-2.322c0-.43-.071-.723-.215-.877-.133-.164-.287-.246-.461-.246l1.66-.738v1.4zm5.526 4.506c-.553 0-1.03-.133-1.43-.4a2.79 2.79 0 0 1-.923-1.06 3.279 3.279 0 0 1-.307-1.4c0-.636.122-1.185.369-1.646.256-.462.584-.81.984-1.046a2.42 2.42 0 0 1 1.246-.354c.615 0 1.143.226 1.584.677.451.44.697 1.056.738 1.845h-3.999c0 .493.093.928.277 1.308.185.369.43.656.738.861.318.195.662.293 1.031.293.964 0 1.615-.308 1.953-.923-.092.553-.343 1-.753 1.338-.41.338-.913.507-1.508.507zm-.169-5.398c-.4 0-.743.143-1.03.43-.288.277-.462.641-.523 1.092h2.799c0-.471-.128-.84-.384-1.107-.247-.277-.534-.415-.862-.415zm7.835 5.398a1.454 1.454 0 0 1-.83-.261c-.226-.164-.354-.354-.385-.57a1.81 1.81 0 0 1-.738.616 2.037 2.037 0 0 1-.892.215c-.472 0-.867-.133-1.185-.4-.318-.277-.477-.635-.477-1.076 0-1.138 1.067-1.708 3.2-1.708v-.169c0-.564-.082-.979-.247-1.246-.225-.379-.594-.569-1.107-.569-.4 0-.733.118-1 .354-.256.236-.384.544-.384.923a4.206 4.206 0 0 1-.154-.277.996.996 0 0 1-.046-.338c0-.37.174-.692.523-.97.348-.286.805-.43 1.369-.43.8 0 1.369.267 1.707.8.113.164.195.369.246.615.051.246.077.57.077.97v1.83c0 .317.087.563.261.738.185.174.441.261.77.261h.2l-.908.692zM47.1 45.14c-.82 0-1.374.102-1.662.307a.97.97 0 0 0-.43.831c0 .287.077.513.23.677.154.164.36.246.616.246.195 0 .38-.046.553-.139.175-.092.324-.22.447-.384.164-.215.246-.508.246-.877v-.661zm2.99-6.922c0-.43-.072-.722-.216-.876-.133-.164-.287-.246-.461-.246h-.092l1.753-.8v9.844c0 .45.046.79.138 1.015.093.225.195.38.308.461.113.072.17.093.17.062h-2.216c0 .03.057.01.17-.062.112-.082.215-.236.307-.461.092-.236.139-.574.139-1.015v-7.922zm8.497 9.644c-.553 0-1.03-.133-1.43-.4a2.79 2.79 0 0 1-.923-1.06 3.279 3.279 0 0 1-.308-1.4c0-.636.123-1.185.37-1.646.256-.462.584-.81.984-1.046a2.42 2.42 0 0 1 1.246-.354c.615 0 1.143.226 1.584.677.451.44.697 1.056.738 1.845H56.85c0 .493.093.928.277 1.308.185.369.43.656.738.861.318.195.662.293 1.03.293.965 0 1.616-.308 1.954-.923-.092.553-.343 1-.753 1.338-.41.338-.913.507-1.508.507zm-.169-5.398c-.4 0-.743.143-1.03.43-.288.277-.462.641-.523 1.092h2.799c0-.471-.128-.84-.385-1.107-.246-.277-.533-.415-.86-.415zm5.22 5.398c-.307 0-.625-.051-.953-.154a2.628 2.628 0 0 1-.816-.4v-1.353c.195.482.457.83.785 1.046a2.07 2.07 0 0 0 1.092.308c.318 0 .574-.088.769-.262.205-.174.308-.364.308-.569 0-.226-.103-.415-.308-.57-.205-.153-.518-.327-.938-.522-.544-.256-.964-.508-1.262-.754-.297-.246-.446-.579-.446-1 0-.46.175-.856.523-1.184.349-.328.805-.492 1.37-.492.389 0 .727.046 1.014.138.288.093.503.195.646.308l-.246 1.154a1.443 1.443 0 0 0-.615-.785 1.72 1.72 0 0 0-.907-.261c-.277 0-.508.082-.693.246-.174.164-.261.349-.261.554 0 .276.108.497.323.661.225.164.564.344 1.015.538.533.226.938.457 1.215.692.287.226.43.549.43.97 0 .297-.081.574-.245.83a1.826 1.826 0 0 1-.723.63c-.308.154-.667.231-1.077.231zm4.949 0c-.502 0-.882-.169-1.138-.507-.257-.349-.385-.764-.385-1.246v-3.415h-.861l1.846-2.091v1.476h1.968v.615H68.05v3.246c0 .39.102.687.307.892a.998.998 0 0 0 .708.292c.205 0 .405-.062.6-.184.194-.124.353-.293.476-.508-.153.953-.671 1.43-1.553 1.43zm6.701 0a1.454 1.454 0 0 1-.83-.261c-.226-.164-.354-.354-.385-.57a1.81 1.81 0 0 1-.738.616 2.037 2.037 0 0 1-.892.215c-.472 0-.866-.133-1.184-.4-.318-.277-.477-.635-.477-1.076 0-1.138 1.066-1.708 3.2-1.708v-.169c0-.564-.083-.979-.247-1.246-.225-.379-.595-.569-1.107-.569-.4 0-.734.118-1 .354-.256.236-.385.544-.385.923a4.206 4.206 0 0 1-.153-.277.993.993 0 0 1-.047-.338c0-.37.175-.692.523-.97.349-.286.805-.43 1.37-.43.8 0 1.368.267 1.706.8.113.164.195.369.247.615.05.246.077.57.077.97v1.83c0 .317.087.563.261.738.185.174.44.261.77.261h.199l-.907.692zm-1.307-2.722c-.82 0-1.374.102-1.661.307a.97.97 0 0 0-.43.831c0 .287.076.513.23.677.154.164.359.246.615.246.195 0 .38-.046.554-.139.174-.092.323-.22.446-.384.164-.215.246-.508.246-.877v-.661zm4.513 2.722c-.503 0-.882-.169-1.138-.507-.257-.349-.385-.764-.385-1.246v-3.415h-.861l1.845-2.091v1.476h1.97v.615h-1.97v3.246c0 .39.103.687.308.892a.998.998 0 0 0 .708.292c.205 0 .405-.062.6-.184.194-.124.353-.293.476-.508-.154.953-.671 1.43-1.553 1.43zm4.733 0c-.554 0-1.03-.133-1.43-.4a2.79 2.79 0 0 1-.924-1.06 3.28 3.28 0 0 1-.307-1.4c0-.636.123-1.185.369-1.646.256-.462.584-.81.984-1.046a2.42 2.42 0 0 1 1.246-.354c.615 0 1.143.226 1.584.677.452.44.698 1.056.739 1.845h-4c0 .493.093.928.277 1.308.185.369.431.656.739.861.318.195.661.293 1.03.293.964 0 1.615-.308 1.954-.923-.093.553-.344 1-.754 1.338-.41.338-.913.507-1.507.507zm-.17-5.398c-.4 0-.743.143-1.03.43-.287.277-.462.641-.523 1.092h2.8c0-.471-.129-.84-.385-1.107-.246-.277-.534-.415-.862-.415z" fill="#A6A6A6"/></svg>