<svg width="35" height="35" fill="none" xmlns="http://www.w3.org/2000/svg"><path d="M4.001 17.192c-1.547.651-1.611 2.875 0 3.543 1.35.56 3.416 1.38 5.485 2.062l-.078.237c1.704.562 3.561 1.084 5.05 1.231L4 17.192zm0 0 24.938-10.5-.097-.23m-24.84 10.73 24.84-10.73m0 0 .097.23c1.405-.592 2.912.596 2.663 2.1l-3.308 20.062c-.292 1.771-2.235 2.78-3.852 1.902l-.12.22 4.52-24.514zM6.604 18.718l-.567.239.573.224c1.097.43 2.368.904 3.632 1.32 1.64.541 3.15.945 4.244 1.085l.121.016.087-.087 6.327-6.327-.172-.171.172.171a1.208 1.208 0 0 1 1.709 0l.176-.177-.176.177a1.208 1.208 0 0 1 0 1.71l-5.777 5.776-.181.181.186.177c.176.168.387.354.634.557.693.57 1.565 1.188 2.515 1.809 1.877 1.226 3.983 2.416 5.442 3.209l.309.168.057-.347 3.088-18.725.074-.447-.418.175-22.055 9.287z" fill="#333" stroke="#F7F7F7" stroke-width=".5"/></svg>