<svg width="35" height="35" fill="none" xmlns="http://www.w3.org/2000/svg"><path d="m14.272 10.588-.147.202a.764.764 0 0 0-.752-.082c-1.276.547-2.347 1.927-2.295 3.324l.005.102.019.248.035.292.056.338c.247 1.304.99 3.416 3.187 5.613 2.196 2.197 4.309 2.94 5.612 3.186l.341.057.147.019.272.027.223.013c1.395.05 2.772-1.015 3.318-2.288l-10.021-11.05zm0 0-.147.202c.702.512 1.267 1.205 1.763 1.902m-1.616-2.104 1.616 2.104m0 0 .475.688.001.002.025.037.197.29c.2.293.179.682-.044.95l-.09.09-1.332.989a.581.581 0 0 0-.168.746c.312.567.868 1.414 1.511 2.057.644.644 1.53 1.235 2.132 1.58m-2.707-7.429 6.218 6.293h.001l.143-.204-.145.203-.789-.55.142-.205-.143.205a.787.787 0 0 0-1.072.168m-1.648 1.518.124-.217-.124.217zm0 0c.227.13.5.087.68-.077l.012-.011.01-.012.056-.066.01-.012.009-.012.871-1.328m0 0-.004.006-.2-.15.21.137-.006.007zM10.09 29.772l-.093-.054-.103.03-4.422 1.301a1.223 1.223 0 0 1-1.551-1.378l.035-.146 1.298-4.416.031-.105-.057-.095a14.272 14.272 0 0 1-2.06-7.407c0-7.916 6.417-14.334 14.333-14.334s14.334 6.418 14.334 14.334c0 7.916-6.418 14.333-14.334 14.333-2.527 0-4.905-.655-6.968-1.805l-.443-.258zM7.433 23.88c.256.403.365.898.28 1.387l-.052.223-.642 2.184-.13.44.44-.13 2.19-.644a1.96 1.96 0 0 1 1.604.23 11.854 11.854 0 0 0 6.378 1.849c6.582 0 11.917-5.336 11.917-11.917 0-6.582-5.335-11.917-11.917-11.917-6.581 0-11.916 5.335-11.916 11.917 0 2.348.678 4.535 1.848 6.378z" fill="#333" stroke="#F7F7F7" stroke-width=".5"/></svg>